<svg width="32" height="9" viewBox="0 0 32 9" fill="none" xmlns="http://www.w3.org/2000/svg">
<path d="M32 7.48117C32 7.85726 31.6951 8.16216 31.3198 8.16216C30.9446 8.16216 30.6396 7.85726 30.6396 7.48117C30.6396 7.10509 30.9235 6.82202 31.281 6.8018C31.2867 6.8018 31.2915 6.8018 31.2964 6.8018C31.3045 6.8018 31.3117 6.8018 31.3198 6.8018C31.3279 6.8018 31.3352 6.8018 31.3433 6.8018C31.3489 6.8018 31.3538 6.8018 31.3587 6.8018C31.7161 6.82202 32 7.11884 32 7.48117Z" fill="#1E1E1E"/>
<path d="M1.36117 0.679371C1.36117 1.05545 1.05626 1.36036 0.680989 1.36036C0.305717 1.36036 0 1.05545 0 0.679371C0 0.303291 0.28388 0.0202194 0.641359 0C0.64702 0 0.651873 0 0.656726 0C0.664813 0 0.672092 0 0.68018 0C0.688268 0 0.695547 0 0.703634 0C0.709296 0 0.714149 0 0.719001 0C1.07648 0.0202194 1.36036 0.31704 1.36036 0.679371H1.36117Z" fill="#1E1E1E"/>
<path d="M5.93721 2.70211C6.29712 2.7199 6.58261 3.01753 6.58261 3.38148V4.74184C6.58261 5.10498 6.29873 5.40099 5.94126 5.42121C5.93559 5.42121 5.93074 5.42121 5.92589 5.42121C5.93155 5.42121 5.9364 5.42121 5.94126 5.42121H3.14128C2.7838 5.44143 2.49911 5.73825 2.49911 6.10058C2.49911 6.46292 2.78299 6.75974 3.14128 6.77996H5.94126C6.29873 6.75974 6.58261 6.46292 6.58261 6.10058C6.58261 5.73825 6.86649 5.44143 7.22478 5.42121H7.30242C7.6599 5.40019 7.94378 5.10336 7.94378 4.74022V3.37986C7.94378 3.01592 7.65748 2.71829 7.29838 2.70049H7.22802C7.23368 2.70049 7.23934 2.70049 7.24581 2.70049C7.24015 2.70049 7.23449 2.70049 7.22802 2.70049C6.86811 2.6827 6.58261 2.38507 6.58261 2.02112C6.58261 1.65717 6.27771 1.34013 5.90243 1.34013H3.1801C2.80402 1.34013 2.49911 1.64504 2.49911 2.02112C2.49911 2.3972 2.21361 2.6827 1.85371 2.70049C1.84804 2.70049 1.84238 2.70049 1.83591 2.70049C1.84157 2.70049 1.84724 2.70049 1.85371 2.70049H1.78334C1.42344 2.71829 1.13794 3.01592 1.13794 3.37986V7.46094C1.13794 7.83702 1.44285 8.14112 1.81812 8.14112C2.19339 8.14112 2.4983 7.83622 2.4983 7.46094V3.37986C2.4983 3.01592 2.78461 2.71829 3.1437 2.70049C3.14936 2.70049 3.15502 2.70049 3.1615 2.70049C3.15583 2.70049 3.15017 2.70049 3.1437 2.70049H5.9364L5.93721 2.70211Z" fill="#1E1E1E"/>
<path d="M14.6073 2.72315H14.5369C14.5426 2.72315 14.5482 2.72315 14.5547 2.72315C14.549 2.72315 14.5434 2.72315 14.5369 2.72315C14.1778 2.70536 13.8915 2.40773 13.8915 2.04378C13.8915 1.67983 13.5866 1.3636 13.2113 1.3636H10.4882C10.1129 1.3636 9.80801 1.66851 9.80801 2.04378C9.80801 2.41905 9.52251 2.70536 9.1626 2.72315C9.15694 2.72315 9.15128 2.72315 9.14481 2.72315C9.15047 2.72315 9.15613 2.72315 9.1626 2.72315H9.09224C8.73234 2.74095 8.44684 3.03858 8.44684 3.40252V6.12324C8.44684 6.48719 8.73234 6.78482 9.09224 6.80261H9.1626C9.15694 6.80261 9.15128 6.80261 9.14481 6.80261C9.15047 6.80261 9.15613 6.80261 9.1626 6.80261C9.52251 6.82041 9.80801 7.11804 9.80801 7.48199C9.80801 7.84593 10.1129 8.16217 10.4882 8.16217H13.2113C13.5874 8.16217 13.8915 7.85726 13.8915 7.48199C13.8915 7.10671 14.1778 6.82041 14.5369 6.80261C14.5426 6.80261 14.5482 6.80261 14.5547 6.80261C14.549 6.80261 14.5434 6.80261 14.5369 6.80261H14.6073C14.9672 6.78482 15.2527 6.48719 15.2527 6.12324V3.40252C15.2527 3.03858 14.9664 2.74095 14.6073 2.72315ZM10.4534 6.80423C10.4591 6.80423 10.4647 6.80423 10.4712 6.80423C10.4655 6.80423 10.4599 6.80423 10.4534 6.80423C10.0943 6.78644 9.80801 6.48881 9.80801 6.12486V3.40414C9.80801 3.04019 10.0943 2.74256 10.4534 2.72477C10.4591 2.72477 10.4647 2.72477 10.4712 2.72477C10.4655 2.72477 10.4599 2.72477 10.4534 2.72477H13.2461C13.2404 2.72477 13.2348 2.72477 13.2283 2.72477C13.234 2.72477 13.2396 2.72477 13.2461 2.72477C13.606 2.74256 13.8915 3.04019 13.8915 3.40414V6.12486C13.8915 6.48881 13.606 6.78644 13.2461 6.80423C13.2404 6.80423 13.2348 6.80423 13.2283 6.80423C13.234 6.80423 13.2396 6.80423 13.2461 6.80423H10.4534Z" fill="#1E1E1E"/>
<path d="M22.2842 1.37411C21.9081 1.37411 21.6032 1.67902 21.6032 2.0551V6.13538C21.6032 5.77143 21.3177 5.4738 20.9578 5.456H20.8874C20.8931 5.456 20.8987 5.456 20.9052 5.456C20.8995 5.456 20.8939 5.456 20.8874 5.456C20.5275 5.43821 20.242 5.14058 20.242 4.77663C20.242 4.41268 19.9557 4.11505 19.5966 4.09726H19.5262C19.5319 4.09726 19.5376 4.09726 19.544 4.09726C19.5384 4.09726 19.5327 4.09726 19.5262 4.09726C19.1663 4.07947 18.8808 3.78184 18.8808 3.41789C18.8808 3.05394 18.597 2.75874 18.2395 2.73852H18.1618C18.1675 2.73852 18.1723 2.73852 18.1772 2.73852C18.1715 2.73852 18.1667 2.73852 18.1618 2.73852C17.8043 2.7183 17.5197 2.42148 17.5197 2.05915C17.5197 1.69682 17.2148 1.37816 16.8395 1.37816C16.4642 1.37816 16.1593 1.68307 16.1593 2.05915V7.49978C16.1593 7.87586 16.4642 8.18077 16.8395 8.18077C17.2148 8.18077 17.5197 7.87586 17.5197 7.49978V3.41951C17.5197 3.78346 17.806 4.08109 18.1651 4.09888H18.2354C18.2298 4.09888 18.2241 4.09888 18.2176 4.09888C18.2233 4.09888 18.229 4.09888 18.2354 4.09888C18.5953 4.11667 18.8808 4.4143 18.8808 4.77825C18.8808 5.1422 19.1663 5.43983 19.5262 5.45762H19.5966C19.5909 5.45762 19.5853 5.45762 19.5788 5.45762C19.5845 5.45762 19.5901 5.45762 19.5966 5.45762C19.9565 5.47541 20.242 5.77304 20.242 6.13699C20.242 6.50094 20.5259 6.79614 20.8834 6.81636H20.961C20.9553 6.81636 20.9505 6.81636 20.9456 6.81636C20.9513 6.81636 20.9561 6.81636 20.961 6.81636C21.3185 6.83658 21.6024 7.1334 21.6024 7.49574C21.6024 7.85807 21.9073 8.17672 22.2833 8.17672C22.6594 8.17672 22.9635 7.87182 22.9635 7.49574V2.0551C22.9635 1.67902 22.6586 1.37411 22.2833 1.37411H22.2842Z" fill="#1E1E1E"/>
<path d="M29.8155 6.77997C30.1754 6.76218 30.4609 6.46455 30.4609 6.1006C30.4609 5.73665 30.1746 5.43902 29.8155 5.42123H29.7451C29.7508 5.42123 29.7564 5.42123 29.7629 5.42123C29.7573 5.42123 29.7516 5.42123 29.7451 5.42123C29.3852 5.40344 29.0997 5.10581 29.0997 4.74186C29.0997 4.37791 28.8158 4.08271 28.4584 4.06249H27.0195C26.6621 4.08271 26.3782 4.37953 26.3782 4.74186C26.3782 5.10419 26.6637 5.40344 27.0236 5.42123H28.4551C28.4495 5.42123 28.4438 5.42123 28.4373 5.42123C28.4317 5.42123 28.426 5.42123 28.4195 5.42123H28.4543C28.8142 5.43902 29.0997 5.73665 29.0997 6.1006C29.0997 6.46455 28.8142 6.76218 28.4543 6.77997C28.4487 6.77997 28.443 6.77997 28.4365 6.77997C28.4422 6.77997 28.4478 6.77997 28.4543 6.77997H25.6616C25.6673 6.77997 25.6729 6.77997 25.6794 6.77997C25.6737 6.77997 25.6681 6.77997 25.6616 6.77997C25.3017 6.76218 25.0162 6.46455 25.0162 6.1006V3.37988C25.0162 3.01593 25.3017 2.7183 25.6616 2.70051C25.6673 2.70051 25.6729 2.70051 25.6794 2.70051C25.6737 2.70051 25.6681 2.70051 25.6616 2.70051H28.4543C28.4487 2.70051 28.443 2.70051 28.4365 2.70051C28.4309 2.70051 28.4252 2.70051 28.4187 2.70051H28.4535C28.8134 2.7183 29.0989 3.01593 29.0989 3.37988C29.0989 3.74383 29.3828 4.03903 29.7403 4.05925H29.8179C30.1754 4.03903 30.4601 3.74221 30.4601 3.37988C30.4601 3.01755 30.1738 2.7183 29.8147 2.70051H29.7443C29.75 2.70051 29.7556 2.70051 29.7621 2.70051C29.7564 2.70051 29.7508 2.70051 29.7443 2.70051C29.3844 2.68272 29.0989 2.38509 29.0989 2.02114C29.0989 1.65719 28.794 1.34096 28.4187 1.34096H25.6956C25.3195 1.34096 25.0154 1.64587 25.0154 2.02114C25.0154 2.39641 24.7299 2.68272 24.37 2.70051C24.3643 2.70051 24.3587 2.70051 24.3522 2.70051C24.3579 2.70051 24.3635 2.70051 24.37 2.70051H24.2996C23.9397 2.7183 23.6542 3.01593 23.6542 3.37988V6.1006C23.6542 6.46455 23.9405 6.76218 24.2996 6.77997H24.37C24.3643 6.77997 24.3587 6.77997 24.3522 6.77997C24.3579 6.77997 24.3635 6.77997 24.37 6.77997C24.7299 6.79776 25.0154 7.09539 25.0154 7.45934C25.0154 7.82329 25.3203 8.13952 25.6956 8.13952H28.4187C28.7948 8.13952 29.0989 7.83461 29.0989 7.45934C29.0989 7.08407 29.3844 6.79776 29.7443 6.77997H29.8147H29.8155Z" fill="#1E1E1E"/>
</svg>
