<svg width="79" height="20" viewBox="0 0 79 20" fill="none" xmlns="http://www.w3.org/2000/svg">
<path d="M78.2323 18.2897C78.2323 19.2091 77.4869 19.9545 76.5694 19.9545C75.652 19.9545 74.9066 19.2091 74.9066 18.2897C74.9066 17.3702 75.6006 16.6782 76.4745 16.6288C76.4884 16.6288 76.5002 16.6288 76.5121 16.6288C76.5319 16.6288 76.5497 16.6288 76.5694 16.6288C76.5892 16.6288 76.607 16.6288 76.6268 16.6288C76.6406 16.6288 76.6525 16.6288 76.6643 16.6288C77.5383 16.6782 78.2323 17.4039 78.2323 18.2897Z" fill="#1E1E1E"/>
<path d="M3.32773 1.6609C3.32773 2.58033 2.5823 3.32575 1.66485 3.32575C0.747405 3.32575 0 2.58033 0 1.6609C0 0.741473 0.694019 0.0494315 1.56797 0C1.58181 0 1.59367 0 1.60554 0C1.62531 0 1.6431 0 1.66288 0C1.68265 0 1.70044 0 1.72022 0C1.73406 0 1.74592 0 1.75779 0C2.63174 0.0494315 3.32575 0.775086 3.32575 1.6609H3.32773Z" fill="#1E1E1E"/>
<path d="M14.5151 6.60603C15.3949 6.64953 16.0929 7.37716 16.0929 8.26693V11.5927C16.0929 12.4805 15.3989 13.2042 14.5249 13.2536C14.5111 13.2536 14.4992 13.2536 14.4874 13.2536C14.5012 13.2536 14.5131 13.2536 14.5249 13.2536H7.67966C6.80571 13.303 6.10971 14.0287 6.10971 14.9145C6.10971 15.8003 6.80373 16.5259 7.67966 16.5754H14.5249C15.3989 16.5259 16.0929 15.8003 16.0929 14.9145C16.0929 14.0287 16.7869 13.303 17.6629 13.2536H17.8527C18.7266 13.2022 19.4206 12.4765 19.4206 11.5887V8.26297C19.4206 7.37321 18.7207 6.64557 17.8428 6.60208H17.6708C17.6846 6.60208 17.6984 6.60208 17.7143 6.60208C17.7004 6.60208 17.6866 6.60208 17.6708 6.60208C16.7909 6.55858 16.0929 5.83094 16.0929 4.94118C16.0929 4.05141 15.3475 3.27632 14.43 3.27632H7.77457C6.85514 3.27632 6.10971 4.02175 6.10971 4.94118C6.10971 5.8606 5.41174 6.55858 4.53186 6.60208C4.51802 6.60208 4.50418 6.60208 4.48836 6.60208C4.5022 6.60208 4.51604 6.60208 4.53186 6.60208H4.35984C3.47996 6.64557 2.78198 7.37321 2.78198 8.26297V18.2402C2.78198 19.1597 3.52741 19.9031 4.44486 19.9031C5.36231 19.9031 6.10774 19.1577 6.10774 18.2402V8.26297C6.10774 7.37321 6.80769 6.64557 7.68559 6.60208C7.69943 6.60208 7.71327 6.60208 7.72909 6.60208C7.71525 6.60208 7.70141 6.60208 7.68559 6.60208H14.5131L14.5151 6.60603Z" fill="#1E1E1E"/>
<path d="M35.7113 6.65744H35.5393C35.5531 6.65744 35.567 6.65744 35.5828 6.65744C35.569 6.65744 35.5551 6.65744 35.5393 6.65744C34.6614 6.61394 33.9614 5.88631 33.9614 4.99654C33.9614 4.10677 33.216 3.33366 32.2986 3.33366H25.6411C24.7237 3.33366 23.9782 4.07909 23.9782 4.99654C23.9782 5.91399 23.2803 6.61394 22.4004 6.65744C22.3865 6.65744 22.3727 6.65744 22.3569 6.65744C22.3707 6.65744 22.3846 6.65744 22.4004 6.65744H22.2284C21.3485 6.70094 20.6505 7.42857 20.6505 8.31834V14.9698C20.6505 15.8596 21.3485 16.5872 22.2284 16.6307H22.4004C22.3865 16.6307 22.3727 16.6307 22.3569 16.6307C22.3707 16.6307 22.3846 16.6307 22.4004 16.6307C23.2803 16.6742 23.9782 17.4019 23.9782 18.2916C23.9782 19.1814 24.7237 19.9545 25.6411 19.9545H32.2986C33.218 19.9545 33.9614 19.2091 33.9614 18.2916C33.9614 17.3742 34.6614 16.6742 35.5393 16.6307C35.5531 16.6307 35.567 16.6307 35.5828 16.6307C35.569 16.6307 35.5551 16.6307 35.5393 16.6307H35.7113C36.5912 16.5872 37.2892 15.8596 37.2892 14.9698V8.31834C37.2892 7.42857 36.5892 6.70094 35.7113 6.65744ZM25.5561 16.6347C25.5699 16.6347 25.5838 16.6347 25.5996 16.6347C25.5858 16.6347 25.5719 16.6347 25.5561 16.6347C24.6782 16.5912 23.9782 15.8636 23.9782 14.9738V8.32229C23.9782 7.43253 24.6782 6.70489 25.5561 6.66139C25.5699 6.66139 25.5838 6.66139 25.5996 6.66139C25.5858 6.66139 25.5719 6.66139 25.5561 6.66139H32.3836C32.3697 6.66139 32.3559 6.66139 32.3401 6.66139C32.3539 6.66139 32.3678 6.66139 32.3836 6.66139C33.2635 6.70489 33.9614 7.43253 33.9614 8.32229V14.9738C33.9614 15.8636 33.2635 16.5912 32.3836 16.6347C32.3697 16.6347 32.3559 16.6347 32.3401 16.6347C32.3539 16.6347 32.3678 16.6347 32.3836 16.6347H25.5561Z" fill="#1E1E1E"/>
<path d="M54.4795 3.35938C53.56 3.35938 52.8146 4.1048 52.8146 5.02423V14.9995C52.8146 14.1097 52.1166 13.3821 51.2368 13.3386H51.0647C51.0786 13.3386 51.0924 13.3386 51.1082 13.3386C51.0944 13.3386 51.0806 13.3386 51.0647 13.3386C50.1849 13.2951 49.4869 12.5675 49.4869 11.6777C49.4869 10.7879 48.7869 10.0603 47.909 10.0168H47.737C47.7509 10.0168 47.7647 10.0168 47.7805 10.0168C47.7667 10.0168 47.7528 10.0168 47.737 10.0168C46.8571 9.97331 46.1592 9.24568 46.1592 8.35591C46.1592 7.46615 45.4651 6.74445 44.5912 6.69501H44.4014C44.4152 6.69501 44.4271 6.69501 44.4389 6.69501C44.4251 6.69501 44.4132 6.69501 44.4014 6.69501C43.5274 6.64558 42.8314 5.91993 42.8314 5.03412C42.8314 4.1483 42.086 3.36926 41.1686 3.36926C40.2511 3.36926 39.5057 4.11469 39.5057 5.03412V18.3352C39.5057 19.2546 40.2511 20 41.1686 20C42.086 20 42.8314 19.2546 42.8314 18.3352V8.35987C42.8314 9.24964 43.5314 9.97727 44.4093 10.0208H44.5813C44.5675 10.0208 44.5536 10.0208 44.5378 10.0208C44.5516 10.0208 44.5655 10.0208 44.5813 10.0208C45.4612 10.0643 46.1592 10.7919 46.1592 11.6817C46.1592 12.5714 46.8571 13.2991 47.737 13.3426H47.909C47.8952 13.3426 47.8814 13.3426 47.8655 13.3426C47.8794 13.3426 47.8932 13.3426 47.909 13.3426C48.7889 13.3861 49.4869 14.1137 49.4869 15.0035C49.4869 15.8932 50.1809 16.6149 51.0549 16.6644H51.2447C51.2308 16.6644 51.219 16.6644 51.2071 16.6644C51.221 16.6644 51.2328 16.6644 51.2447 16.6644C52.1186 16.7138 52.8126 17.4395 52.8126 18.3253C52.8126 19.2111 53.5581 19.9901 54.4775 19.9901C55.3969 19.9901 56.1404 19.2447 56.1404 18.3253V5.02423C56.1404 4.1048 55.3949 3.35938 54.4775 3.35938H54.4795Z" fill="#1E1E1E"/>
<path d="M72.8918 16.5754C73.7716 16.5319 74.4696 15.8043 74.4696 14.9145C74.4696 14.0247 73.7697 13.2971 72.8918 13.2536H72.7197C72.7336 13.2536 72.7474 13.2536 72.7632 13.2536C72.7494 13.2536 72.7356 13.2536 72.7197 13.2536C71.8399 13.2101 71.1419 12.4825 71.1419 11.5927C71.1419 10.7029 70.4479 9.98122 69.5739 9.93179H66.0564C65.1824 9.98122 64.4884 10.7069 64.4884 11.5927C64.4884 12.4785 65.1864 13.2101 66.0663 13.2536H69.566C69.5522 13.2536 69.5383 13.2536 69.5225 13.2536C69.5087 13.2536 69.4948 13.2536 69.479 13.2536H69.564C70.4439 13.2971 71.1419 14.0247 71.1419 14.9145C71.1419 15.8043 70.4439 16.5319 69.564 16.5754C69.5502 16.5754 69.5363 16.5754 69.5205 16.5754C69.5344 16.5754 69.5482 16.5754 69.564 16.5754H62.7365C62.7504 16.5754 62.7642 16.5754 62.78 16.5754C62.7662 16.5754 62.7524 16.5754 62.7365 16.5754C61.8567 16.5319 61.1587 15.8043 61.1587 14.9145V8.26298C61.1587 7.37321 61.8567 6.64558 62.7365 6.60208C62.7504 6.60208 62.7642 6.60208 62.78 6.60208C62.7662 6.60208 62.7524 6.60208 62.7365 6.60208H69.564C69.5502 6.60208 69.5363 6.60208 69.5205 6.60208C69.5067 6.60208 69.4928 6.60208 69.477 6.60208H69.562C70.4419 6.64558 71.1399 7.37321 71.1399 8.26298C71.1399 9.15275 71.8339 9.87445 72.7079 9.92388H72.8977C73.7716 9.87445 74.4676 9.14879 74.4676 8.26298C74.4676 7.37717 73.7677 6.64558 72.8898 6.60208H72.7178C72.7316 6.60208 72.7454 6.60208 72.7613 6.60208C72.7474 6.60208 72.7336 6.60208 72.7178 6.60208C71.8379 6.55858 71.1399 5.83095 71.1399 4.94118C71.1399 4.05141 70.3945 3.27831 69.477 3.27831H62.8196C61.9002 3.27831 61.1567 4.02373 61.1567 4.94118C61.1567 5.85863 60.4587 6.55858 59.5789 6.60208C59.565 6.60208 59.5512 6.60208 59.5354 6.60208C59.5492 6.60208 59.563 6.60208 59.5789 6.60208H59.4068C58.527 6.64558 57.829 7.37321 57.829 8.26298V14.9145C57.829 15.8043 58.5289 16.5319 59.4068 16.5754H59.5789C59.565 16.5754 59.5512 16.5754 59.5354 16.5754C59.5492 16.5754 59.563 16.5754 59.5789 16.5754C60.4587 16.6189 61.1567 17.3465 61.1567 18.2363C61.1567 19.1261 61.9021 19.8992 62.8196 19.8992H69.477C70.3965 19.8992 71.1399 19.1537 71.1399 18.2363C71.1399 17.3188 71.8379 16.6189 72.7178 16.5754H72.8898H72.8918Z" fill="#1E1E1E"/>
</svg>
