<svg width="157" height="40" viewBox="0 0 157 40" fill="none" xmlns="http://www.w3.org/2000/svg">
<path d="M156.465 36.5793C156.465 38.4182 154.974 39.909 153.139 39.909C151.304 39.909 149.813 38.4182 149.813 36.5793C149.813 34.7405 151.201 33.3564 152.949 33.2575C152.977 33.2575 153 33.2575 153.024 33.2575C153.064 33.2575 153.099 33.2575 153.139 33.2575C153.178 33.2575 153.214 33.2575 153.254 33.2575C153.281 33.2575 153.305 33.2575 153.329 33.2575C155.077 33.3564 156.465 34.8077 156.465 36.5793Z" fill="#1E1E1E"/>
<path d="M6.65546 3.3218C6.65546 5.16065 5.16461 6.65151 3.32971 6.65151C1.49481 6.65151 0 5.16065 0 3.3218C0 1.48295 1.38804 0.0988631 3.13594 0C3.16362 0 3.18735 0 3.21107 0C3.25062 0 3.28621 0 3.32575 0C3.3653 0 3.40089 0 3.44043 0C3.46812 0 3.49184 0 3.51557 0C5.26347 0.0988631 6.65151 1.55017 6.65151 3.3218H6.65546Z" fill="#1E1E1E"/>
<path d="M29.0302 13.2121C30.7899 13.2991 32.1859 14.7543 32.1859 16.5339V23.1854C32.1859 24.9609 30.7978 26.4083 29.0499 26.5072C29.0223 26.5072 28.9985 26.5072 28.9748 26.5072C29.0025 26.5072 29.0262 26.5072 29.0499 26.5072H15.3594C13.6115 26.606 12.2195 28.0573 12.2195 29.829C12.2195 31.6006 13.6075 33.0519 15.3594 33.1508H29.0499C30.7978 33.0519 32.1859 31.6006 32.1859 29.829C32.1859 28.0573 33.5739 26.606 35.3258 26.5072H35.7054C37.4533 26.4043 38.8413 24.953 38.8413 23.1775V16.5259C38.8413 14.7464 37.4414 13.2911 35.6856 13.2042H35.3416C35.3693 13.2042 35.3969 13.2042 35.4286 13.2042C35.4009 13.2042 35.3732 13.2042 35.3416 13.2042C33.5818 13.1172 32.1859 11.6619 32.1859 9.88235C32.1859 8.10282 30.695 6.55264 28.8601 6.55264H15.5492C13.7103 6.55264 12.2195 8.0435 12.2195 9.88235C12.2195 11.7212 10.8235 13.1172 9.06378 13.2042C9.0361 13.2042 9.00842 13.2042 8.97678 13.2042C9.00446 13.2042 9.03214 13.2042 9.06378 13.2042H8.71973C6.95997 13.2911 5.56403 14.7464 5.56403 16.5259V36.4805C5.56403 38.3193 7.05488 39.8062 8.88978 39.8062C10.7247 39.8062 12.2155 38.3154 12.2155 36.4805V16.5259C12.2155 14.7464 13.6154 13.2911 15.3712 13.2042C15.3989 13.2042 15.4266 13.2042 15.4582 13.2042C15.4306 13.2042 15.4029 13.2042 15.3712 13.2042H29.0262L29.0302 13.2121Z" fill="#1E1E1E"/>
<path d="M71.4226 13.3149H71.0786C71.1063 13.3149 71.1339 13.3149 71.1656 13.3149C71.1379 13.3149 71.1102 13.3149 71.0786 13.3149C69.3228 13.2279 67.9229 11.7726 67.9229 9.99308C67.9229 8.21355 66.432 6.66733 64.5971 6.66733H51.2822C49.4473 6.66733 47.9565 8.15818 47.9565 9.99308C47.9565 11.828 46.5605 13.2279 44.8008 13.3149C44.7731 13.3149 44.7454 13.3149 44.7138 13.3149C44.7415 13.3149 44.7691 13.3149 44.8008 13.3149H44.4567C42.697 13.4019 41.301 14.8571 41.301 16.6367V29.9397C41.301 31.7192 42.697 33.1745 44.4567 33.2615H44.8008C44.7731 33.2615 44.7454 33.2615 44.7138 33.2615C44.7415 33.2615 44.7691 33.2615 44.8008 33.2615C46.5605 33.3485 47.9565 34.8038 47.9565 36.5833C47.9565 38.3628 49.4473 39.909 51.2822 39.909H64.5971C66.436 39.909 67.9229 38.4182 67.9229 36.5833C67.9229 34.7484 69.3228 33.3485 71.0786 33.2615C71.1063 33.2615 71.1339 33.2615 71.1656 33.2615C71.1379 33.2615 71.1102 33.2615 71.0786 33.2615H71.4226C73.1824 33.1745 74.5783 31.7192 74.5783 29.9397V16.6367C74.5783 14.8571 73.1784 13.4019 71.4226 13.3149ZM51.1122 33.2694C51.1399 33.2694 51.1676 33.2694 51.1992 33.2694C51.1715 33.2694 51.1438 33.2694 51.1122 33.2694C49.3564 33.1824 47.9565 31.7271 47.9565 29.9476V16.6446C47.9565 14.8651 49.3564 13.4098 51.1122 13.3228C51.1399 13.3228 51.1676 13.3228 51.1992 13.3228C51.1715 13.3228 51.1438 13.3228 51.1122 13.3228H64.7672C64.7395 13.3228 64.7118 13.3228 64.6802 13.3228C64.7078 13.3228 64.7355 13.3228 64.7672 13.3228C66.5269 13.4098 67.9229 14.8651 67.9229 16.6446V29.9476C67.9229 31.7271 66.5269 33.1824 64.7672 33.2694C64.7395 33.2694 64.7118 33.2694 64.6802 33.2694C64.7078 33.2694 64.7355 33.2694 64.7672 33.2694H51.1122Z" fill="#1E1E1E"/>
<path d="M108.959 6.71873C107.12 6.71873 105.629 8.20959 105.629 10.0484V29.999C105.629 28.2195 104.233 26.7642 102.474 26.6772H102.129C102.157 26.6772 102.185 26.6772 102.216 26.6772C102.189 26.6772 102.161 26.6772 102.129 26.6772C100.37 26.5902 98.9738 25.1349 98.9738 23.3554C98.9738 21.5759 97.5739 20.1206 95.8181 20.0336H95.474C95.5017 20.0336 95.5294 20.0336 95.561 20.0336C95.5333 20.0336 95.5057 20.0336 95.474 20.0336C93.7143 19.9466 92.3183 18.4913 92.3183 16.7118C92.3183 14.9323 90.9303 13.4889 89.1824 13.39H88.8027C88.8304 13.39 88.8542 13.39 88.8779 13.39C88.8502 13.39 88.8265 13.39 88.8027 13.39C87.0548 13.2912 85.6629 11.8398 85.6629 10.0682C85.6629 8.29659 84.172 6.73851 82.3371 6.73851C80.5022 6.73851 79.0114 8.22936 79.0114 10.0682V36.6703C79.0114 38.5091 80.5022 40 82.3371 40C84.172 40 85.6629 38.5091 85.6629 36.6703V16.7197C85.6629 18.4993 87.0628 19.9545 88.8186 20.0415H89.1626C89.1349 20.0415 89.1072 20.0415 89.0756 20.0415C89.1033 20.0415 89.131 20.0415 89.1626 20.0415C90.9224 20.1285 92.3183 21.5838 92.3183 23.3633C92.3183 25.1429 93.7143 26.5981 95.474 26.6851H95.8181C95.7904 26.6851 95.7627 26.6851 95.7311 26.6851C95.7588 26.6851 95.7864 26.6851 95.8181 26.6851C97.5778 26.7721 98.9738 28.2274 98.9738 30.0069C98.9738 31.7865 100.362 33.2299 102.11 33.3287H102.489C102.462 33.3287 102.438 33.3287 102.414 33.3287C102.442 33.3287 102.466 33.3287 102.489 33.3287C104.237 33.4276 105.625 34.8789 105.625 36.6505C105.625 38.4221 107.116 39.9802 108.955 39.9802C110.794 39.9802 112.281 38.4894 112.281 36.6505V10.0484C112.281 8.20959 110.79 6.71873 108.955 6.71873H108.959Z" fill="#1E1E1E"/>
<path d="M145.784 33.1508C147.543 33.0638 148.939 31.6085 148.939 29.829C148.939 28.0494 147.539 26.5942 145.784 26.5072H145.439C145.467 26.5072 145.495 26.5072 145.526 26.5072C145.499 26.5072 145.471 26.5072 145.439 26.5072C143.68 26.4202 142.284 24.9649 142.284 23.1854C142.284 21.4058 140.896 19.9624 139.148 19.8636H132.113C130.365 19.9624 128.977 21.4138 128.977 23.1854C128.977 24.957 130.373 26.4202 132.133 26.5072H139.132C139.104 26.5072 139.077 26.5072 139.045 26.5072C139.017 26.5072 138.99 26.5072 138.958 26.5072H139.128C140.888 26.5942 142.284 28.0494 142.284 29.829C142.284 31.6085 140.888 33.0638 139.128 33.1508C139.1 33.1508 139.073 33.1508 139.041 33.1508C139.069 33.1508 139.096 33.1508 139.128 33.1508H125.473C125.501 33.1508 125.528 33.1508 125.56 33.1508C125.532 33.1508 125.505 33.1508 125.473 33.1508C123.713 33.0638 122.317 31.6085 122.317 29.829V16.526C122.317 14.7464 123.713 13.2912 125.473 13.2042C125.501 13.2042 125.528 13.2042 125.56 13.2042C125.532 13.2042 125.505 13.2042 125.473 13.2042H139.128C139.1 13.2042 139.073 13.2042 139.041 13.2042C139.013 13.2042 138.986 13.2042 138.954 13.2042H139.124C140.884 13.2912 142.28 14.7464 142.28 16.526C142.28 18.3055 143.668 19.7489 145.416 19.8478H145.795C147.543 19.7489 148.935 18.2976 148.935 16.526C148.935 14.7543 147.535 13.2912 145.78 13.2042H145.436C145.463 13.2042 145.491 13.2042 145.523 13.2042C145.495 13.2042 145.467 13.2042 145.436 13.2042C143.676 13.1172 142.28 11.6619 142.28 9.88236C142.28 8.10283 140.789 6.55661 138.954 6.55661H125.639C123.8 6.55661 122.313 8.04747 122.313 9.88236C122.313 11.7173 120.917 13.1172 119.158 13.2042C119.13 13.2042 119.102 13.2042 119.071 13.2042C119.098 13.2042 119.126 13.2042 119.158 13.2042H118.814C117.054 13.2912 115.658 14.7464 115.658 16.526V29.829C115.658 31.6085 117.058 33.0638 118.814 33.1508H119.158C119.13 33.1508 119.102 33.1508 119.071 33.1508C119.098 33.1508 119.126 33.1508 119.158 33.1508C120.917 33.2378 122.313 34.693 122.313 36.4726C122.313 38.2521 123.804 39.7983 125.639 39.7983H138.954C140.793 39.7983 142.28 38.3075 142.28 36.4726C142.28 34.6377 143.676 33.2378 145.436 33.1508H145.78H145.784Z" fill="#1E1E1E"/>
</svg>
