<svg width="313" height="80" viewBox="0 0 313 80" fill="none" xmlns="http://www.w3.org/2000/svg">
<path d="M312.929 73.1587C312.929 76.8364 309.948 79.8181 306.278 79.8181C302.608 79.8181 299.626 76.8364 299.626 73.1587C299.626 69.481 302.402 66.7128 305.898 66.5151C305.954 66.5151 306.001 66.5151 306.048 66.5151C306.128 66.5151 306.199 66.5151 306.278 66.5151C306.357 66.5151 306.428 66.5151 306.507 66.5151C306.563 66.5151 306.61 66.5151 306.657 66.5151C310.153 66.7128 312.929 69.6154 312.929 73.1587Z" fill="#1E1E1E"/>
<path d="M13.3109 6.6436C13.3109 10.3213 10.3292 13.303 6.65942 13.303C2.98962 13.303 0 10.3213 0 6.6436C0 2.96589 2.77607 0.197726 6.27187 0C6.32724 0 6.37469 0 6.42215 0C6.50124 0 6.57242 0 6.65151 0C6.7306 0 6.80178 0 6.88087 0C6.93623 0 6.98369 0 7.03114 0C10.5269 0.197726 13.303 3.10035 13.303 6.6436H13.3109Z" fill="#1E1E1E"/>
<path d="M58.0603 26.4241C61.5799 26.5981 64.3717 29.5087 64.3717 33.0677V46.3707C64.3717 49.9219 61.5957 52.8166 58.0999 53.0143C58.0445 53.0143 57.9971 53.0143 57.9496 53.0143C58.005 53.0143 58.0524 53.0143 58.0999 53.0143H30.7188C27.223 53.2121 24.439 56.1147 24.439 59.6579C24.439 63.2012 27.2151 66.1038 30.7188 66.3015H58.0999C61.5957 66.1038 64.3717 63.2012 64.3717 59.6579C64.3717 56.1147 67.1478 53.2121 70.6515 53.0143H71.4108C74.9066 52.8087 77.6827 49.9061 77.6827 46.3549V33.0519C77.6827 29.4928 74.8829 26.5823 71.3712 26.4083H70.6832C70.7385 26.4083 70.7939 26.4083 70.8572 26.4083C70.8018 26.4083 70.7464 26.4083 70.6832 26.4083C67.1636 26.2343 64.3717 23.3238 64.3717 19.7647C64.3717 16.2056 61.39 13.1053 57.7202 13.1053H31.0984C27.4207 13.1053 24.439 16.087 24.439 19.7647C24.439 23.4424 21.6471 26.2343 18.1276 26.4083C18.0722 26.4083 18.0168 26.4083 17.9536 26.4083C18.0089 26.4083 18.0643 26.4083 18.1276 26.4083H17.4395C13.9199 26.5823 11.1281 29.4928 11.1281 33.0519V72.961C11.1281 76.6387 14.1098 79.6125 17.7796 79.6125C21.4494 79.6125 24.4311 76.6308 24.4311 72.961V33.0519C24.4311 29.4928 27.2309 26.5823 30.7425 26.4083C30.7978 26.4083 30.8532 26.4083 30.9165 26.4083C30.8611 26.4083 30.8058 26.4083 30.7425 26.4083H58.0524L58.0603 26.4241Z" fill="#1E1E1E"/>
<path d="M142.845 26.6298H142.157C142.213 26.6298 142.268 26.6298 142.331 26.6298C142.276 26.6298 142.22 26.6298 142.157 26.6298C138.646 26.4558 135.846 23.5452 135.846 19.9862C135.846 16.4271 132.864 13.3347 129.194 13.3347H102.564C98.8947 13.3347 95.913 16.3164 95.913 19.9862C95.913 23.656 93.1211 26.4558 89.6016 26.6298C89.5462 26.6298 89.4908 26.6298 89.4276 26.6298C89.4829 26.6298 89.5383 26.6298 89.6016 26.6298H88.9135C85.3939 26.8038 82.6021 29.7143 82.6021 33.2734V59.8794C82.6021 63.4385 85.3939 66.349 88.9135 66.523H89.6016C89.5462 66.523 89.4908 66.523 89.4276 66.523C89.4829 66.523 89.5383 66.523 89.6016 66.523C93.1211 66.697 95.913 69.6075 95.913 73.1666C95.913 76.7256 98.8947 79.8181 102.564 79.8181H129.194C132.872 79.8181 135.846 76.8364 135.846 73.1666C135.846 69.4968 138.646 66.697 142.157 66.523C142.213 66.523 142.268 66.523 142.331 66.523C142.276 66.523 142.22 66.523 142.157 66.523H142.845C146.365 66.349 149.157 63.4385 149.157 59.8794V33.2734C149.157 29.7143 146.357 26.8038 142.845 26.6298ZM102.224 66.5388C102.28 66.5388 102.335 66.5388 102.398 66.5388C102.343 66.5388 102.288 66.5388 102.224 66.5388C98.7128 66.3648 95.913 63.4543 95.913 59.8952V33.2892C95.913 29.7301 98.7128 26.8196 102.224 26.6456C102.28 26.6456 102.335 26.6456 102.398 26.6456C102.343 26.6456 102.288 26.6456 102.224 26.6456H129.534C129.479 26.6456 129.424 26.6456 129.36 26.6456C129.416 26.6456 129.471 26.6456 129.534 26.6456C133.054 26.8196 135.846 29.7301 135.846 33.2892V59.8952C135.846 63.4543 133.054 66.3648 129.534 66.5388C129.479 66.5388 129.424 66.5388 129.36 66.5388C129.416 66.5388 129.471 66.5388 129.534 66.5388H102.224Z" fill="#1E1E1E"/>
<path d="M217.918 13.4375C214.24 13.4375 211.258 16.4192 211.258 20.0969V59.998C211.258 56.439 208.467 53.5284 204.947 53.3544H204.259C204.314 53.3544 204.37 53.3544 204.433 53.3544C204.378 53.3544 204.322 53.3544 204.259 53.3544C200.739 53.1804 197.948 50.2699 197.948 46.7108C197.948 43.1518 195.148 40.2412 191.636 40.0672H190.948C191.003 40.0672 191.059 40.0672 191.122 40.0672C191.067 40.0672 191.011 40.0672 190.948 40.0672C187.429 39.8932 184.637 36.9827 184.637 33.4236C184.637 29.8646 181.861 26.9778 178.365 26.78H177.605C177.661 26.78 177.708 26.78 177.756 26.78C177.7 26.78 177.653 26.78 177.605 26.78C174.11 26.5823 171.326 23.6797 171.326 20.1364C171.326 16.5932 168.344 13.477 164.674 13.477C161.004 13.477 158.023 16.4587 158.023 20.1364V73.3406C158.023 77.0183 161.004 80 164.674 80C168.344 80 171.326 77.0183 171.326 73.3406V33.4394C171.326 36.9985 174.126 39.909 177.637 40.083H178.325C178.27 40.083 178.214 40.083 178.151 40.083C178.207 40.083 178.262 40.083 178.325 40.083C181.845 40.257 184.637 43.1676 184.637 46.7266C184.637 50.2857 187.429 53.1962 190.948 53.3702H191.636C191.581 53.3702 191.525 53.3702 191.462 53.3702C191.518 53.3702 191.573 53.3702 191.636 53.3702C195.156 53.5442 197.948 56.4548 197.948 60.0138C197.948 63.5729 200.724 66.4597 204.219 66.6574H204.979C204.923 66.6574 204.876 66.6574 204.828 66.6574C204.884 66.6574 204.931 66.6574 204.979 66.6574C208.475 66.8552 211.251 69.7578 211.251 73.301C211.251 76.8443 214.232 79.9605 217.91 79.9605C221.588 79.9605 224.561 76.9787 224.561 73.301V20.0969C224.561 16.4192 221.58 13.4375 217.91 13.4375H217.918Z" fill="#1E1E1E"/>
<path d="M291.567 66.3015C295.086 66.1275 297.878 63.217 297.878 59.6579C297.878 56.0989 295.079 53.1883 291.567 53.0143H290.879C290.934 53.0143 290.99 53.0143 291.053 53.0143C290.998 53.0143 290.942 53.0143 290.879 53.0143C287.359 52.8403 284.567 49.9298 284.567 46.3707C284.567 42.8117 281.791 39.9249 278.296 39.7271H264.225C260.73 39.9249 257.954 42.8275 257.954 46.3707C257.954 49.914 260.745 52.8403 264.265 53.0143H278.264C278.209 53.0143 278.153 53.0143 278.09 53.0143C278.035 53.0143 277.979 53.0143 277.916 53.0143H278.256C281.776 53.1883 284.567 56.0989 284.567 59.6579C284.567 63.217 281.776 66.1275 278.256 66.3015C278.201 66.3015 278.145 66.3015 278.082 66.3015C278.137 66.3015 278.193 66.3015 278.256 66.3015H250.946C251.001 66.3015 251.057 66.3015 251.12 66.3015C251.065 66.3015 251.009 66.3015 250.946 66.3015C247.427 66.1275 244.635 63.217 244.635 59.6579V33.0519C244.635 29.4928 247.427 26.5823 250.946 26.4083C251.001 26.4083 251.057 26.4083 251.12 26.4083C251.065 26.4083 251.009 26.4083 250.946 26.4083H278.256C278.201 26.4083 278.145 26.4083 278.082 26.4083C278.027 26.4083 277.971 26.4083 277.908 26.4083H278.248C281.768 26.5823 284.56 29.4928 284.56 33.0519C284.56 36.611 287.336 39.4978 290.831 39.6955H291.591C295.086 39.4978 297.87 36.5952 297.87 33.0519C297.87 29.5087 295.071 26.5823 291.559 26.4083H290.871C290.926 26.4083 290.982 26.4083 291.045 26.4083C290.99 26.4083 290.934 26.4083 290.871 26.4083C287.351 26.2343 284.56 23.3238 284.56 19.7647C284.56 16.2056 281.578 13.1132 277.908 13.1132H251.278C247.601 13.1132 244.627 16.0949 244.627 19.7647C244.627 23.4345 241.835 26.2343 238.315 26.4083C238.26 26.4083 238.205 26.4083 238.141 26.4083C238.197 26.4083 238.252 26.4083 238.315 26.4083H237.627C234.108 26.5823 231.316 29.4928 231.316 33.0519V59.6579C231.316 63.217 234.116 66.1275 237.627 66.3015H238.315C238.26 66.3015 238.205 66.3015 238.141 66.3015C238.197 66.3015 238.252 66.3015 238.315 66.3015C241.835 66.4755 244.627 69.3861 244.627 72.9451C244.627 76.5042 247.608 79.5966 251.278 79.5966H277.908C281.586 79.5966 284.56 76.6149 284.56 72.9451C284.56 69.2753 287.351 66.4755 290.871 66.3015H291.559H291.567Z" fill="#1E1E1E"/>
</svg>
